<svg width="289" height="287" viewBox="0 0 289 287" fill="none" xmlns="http://www.w3.org/2000/svg">
<path d="M4.04545 229V182.455H22.4091C25.9394 182.455 28.947 183.129 31.4318 184.477C33.9167 185.811 35.8106 187.667 37.1136 190.045C38.4318 192.409 39.0909 195.136 39.0909 198.227C39.0909 201.318 38.4242 204.045 37.0909 206.409C35.7576 208.773 33.8258 210.614 31.2955 211.932C28.7803 213.25 25.7348 213.909 22.1591 213.909H10.4545V206.023H20.5682C22.4621 206.023 24.0227 205.697 25.25 205.045C26.4924 204.379 27.4167 203.462 28.0227 202.295C28.6439 201.114 28.9545 199.758 28.9545 198.227C28.9545 196.682 28.6439 195.333 28.0227 194.182C27.4167 193.015 26.4924 192.114 25.25 191.477C24.0076 190.826 22.4318 190.5 20.5227 190.5H13.8864V229H4.04545ZM60.6477 229.682C57.0568 229.682 53.9659 228.955 51.375 227.5C48.7992 226.03 46.8144 223.955 45.4205 221.273C44.0265 218.576 43.3295 215.386 43.3295 211.705C43.3295 208.114 44.0265 204.962 45.4205 202.25C46.8144 199.538 48.7765 197.424 51.3068 195.909C53.8523 194.394 56.8371 193.636 60.2614 193.636C62.5644 193.636 64.7083 194.008 66.6932 194.75C68.6932 195.477 70.4356 196.576 71.9205 198.045C73.4205 199.515 74.5871 201.364 75.4205 203.591C76.2538 205.803 76.6705 208.394 76.6705 211.364V214.023H47.1932V208.023H67.5568C67.5568 206.629 67.2538 205.394 66.6477 204.318C66.0417 203.242 65.2008 202.402 64.125 201.795C63.0644 201.174 61.8295 200.864 60.4205 200.864C58.9508 200.864 57.6477 201.205 56.5114 201.886C55.3902 202.553 54.5114 203.455 53.875 204.591C53.2386 205.712 52.9129 206.962 52.8977 208.341V214.045C52.8977 215.773 53.2159 217.265 53.8523 218.523C54.5038 219.78 55.4205 220.75 56.6023 221.432C57.7841 222.114 59.1856 222.455 60.8068 222.455C61.8826 222.455 62.8674 222.303 63.7614 222C64.6553 221.697 65.4205 221.242 66.0568 220.636C66.6932 220.03 67.178 219.288 67.5114 218.409L76.4659 219C76.0114 221.152 75.0795 223.03 73.6705 224.636C72.2765 226.227 70.4735 227.47 68.2614 228.364C66.0644 229.242 63.5265 229.682 60.6477 229.682ZM98.8977 229.682C95.3068 229.682 92.2159 228.955 89.625 227.5C87.0492 226.03 85.0644 223.955 83.6705 221.273C82.2765 218.576 81.5795 215.386 81.5795 211.705C81.5795 208.114 82.2765 204.962 83.6705 202.25C85.0644 199.538 87.0265 197.424 89.5568 195.909C92.1023 194.394 95.0871 193.636 98.5114 193.636C100.814 193.636 102.958 194.008 104.943 194.75C106.943 195.477 108.686 196.576 110.17 198.045C111.67 199.515 112.837 201.364 113.67 203.591C114.504 205.803 114.92 208.394 114.92 211.364V214.023H85.4432V208.023H105.807C105.807 206.629 105.504 205.394 104.898 204.318C104.292 203.242 103.451 202.402 102.375 201.795C101.314 201.174 100.08 200.864 98.6705 200.864C97.2008 200.864 95.8977 201.205 94.7614 201.886C93.6402 202.553 92.7614 203.455 92.125 204.591C91.4886 205.712 91.1629 206.962 91.1477 208.341V214.045C91.1477 215.773 91.4659 217.265 92.1023 218.523C92.7538 219.78 93.6705 220.75 94.8523 221.432C96.0341 222.114 97.4356 222.455 99.0568 222.455C100.133 222.455 101.117 222.303 102.011 222C102.905 221.697 103.67 221.242 104.307 220.636C104.943 220.03 105.428 219.288 105.761 218.409L114.716 219C114.261 221.152 113.33 223.03 111.92 224.636C110.527 226.227 108.723 227.47 106.511 228.364C104.314 229.242 101.777 229.682 98.8977 229.682ZM121.239 229V194.091H130.625V200.182H130.989C131.625 198.015 132.693 196.379 134.193 195.273C135.693 194.152 137.42 193.591 139.375 193.591C139.86 193.591 140.383 193.621 140.943 193.682C141.504 193.742 141.996 193.826 142.42 193.932V202.523C141.966 202.386 141.337 202.265 140.534 202.159C139.731 202.053 138.996 202 138.33 202C136.905 202 135.633 202.311 134.511 202.932C133.405 203.538 132.527 204.386 131.875 205.477C131.239 206.568 130.92 207.826 130.92 209.25V229H121.239ZM147.608 229V182.455H165.972C169.502 182.455 172.509 183.129 174.994 184.477C177.479 185.811 179.373 187.667 180.676 190.045C181.994 192.409 182.653 195.136 182.653 198.227C182.653 201.318 181.987 204.045 180.653 206.409C179.32 208.773 177.388 210.614 174.858 211.932C172.343 213.25 169.297 213.909 165.722 213.909H154.017V206.023H164.131C166.025 206.023 167.585 205.697 168.812 205.045C170.055 204.379 170.979 203.462 171.585 202.295C172.206 201.114 172.517 199.758 172.517 198.227C172.517 196.682 172.206 195.333 171.585 194.182C170.979 193.015 170.055 192.114 168.812 191.477C167.57 190.826 165.994 190.5 164.085 190.5H157.449V229H147.608ZM188.864 229V194.091H198.25V200.182H198.614C199.25 198.015 200.318 196.379 201.818 195.273C203.318 194.152 205.045 193.591 207 193.591C207.485 193.591 208.008 193.621 208.568 193.682C209.129 193.742 209.621 193.826 210.045 193.932V202.523C209.591 202.386 208.962 202.265 208.159 202.159C207.356 202.053 206.621 202 205.955 202C204.53 202 203.258 202.311 202.136 202.932C201.03 203.538 200.152 204.386 199.5 205.477C198.864 206.568 198.545 207.826 198.545 209.25V229H188.864ZM229.335 229.682C225.744 229.682 222.653 228.955 220.062 227.5C217.487 226.03 215.502 223.955 214.108 221.273C212.714 218.576 212.017 215.386 212.017 211.705C212.017 208.114 212.714 204.962 214.108 202.25C215.502 199.538 217.464 197.424 219.994 195.909C222.54 194.394 225.525 193.636 228.949 193.636C231.252 193.636 233.396 194.008 235.381 194.75C237.381 195.477 239.123 196.576 240.608 198.045C242.108 199.515 243.275 201.364 244.108 203.591C244.941 205.803 245.358 208.394 245.358 211.364V214.023H215.881V208.023H236.244C236.244 206.629 235.941 205.394 235.335 204.318C234.729 203.242 233.888 202.402 232.812 201.795C231.752 201.174 230.517 200.864 229.108 200.864C227.638 200.864 226.335 201.205 225.199 201.886C224.078 202.553 223.199 203.455 222.562 204.591C221.926 205.712 221.6 206.962 221.585 208.341V214.045C221.585 215.773 221.903 217.265 222.54 218.523C223.191 219.78 224.108 220.75 225.29 221.432C226.472 222.114 227.873 222.455 229.494 222.455C230.57 222.455 231.555 222.303 232.449 222C233.343 221.697 234.108 221.242 234.744 220.636C235.381 220.03 235.866 219.288 236.199 218.409L245.153 219C244.699 221.152 243.767 223.03 242.358 224.636C240.964 226.227 239.161 227.47 236.949 228.364C234.752 229.242 232.214 229.682 229.335 229.682ZM251.676 242.091V194.091H261.222V199.955H261.653C262.078 199.015 262.691 198.061 263.494 197.091C264.313 196.106 265.373 195.288 266.676 194.636C267.994 193.97 269.631 193.636 271.585 193.636C274.131 193.636 276.479 194.303 278.631 195.636C280.782 196.955 282.502 198.947 283.79 201.614C285.078 204.265 285.722 207.591 285.722 211.591C285.722 215.485 285.093 218.773 283.835 221.455C282.593 224.121 280.896 226.144 278.744 227.523C276.608 228.886 274.214 229.568 271.562 229.568C269.684 229.568 268.085 229.258 266.767 228.636C265.464 228.015 264.396 227.235 263.562 226.295C262.729 225.341 262.093 224.379 261.653 223.409H261.358V242.091H251.676ZM261.153 211.545C261.153 213.621 261.441 215.432 262.017 216.977C262.593 218.523 263.426 219.727 264.517 220.591C265.608 221.439 266.934 221.864 268.494 221.864C270.07 221.864 271.403 221.432 272.494 220.568C273.585 219.689 274.411 218.477 274.972 216.932C275.547 215.371 275.835 213.576 275.835 211.545C275.835 209.53 275.555 207.758 274.994 206.227C274.434 204.697 273.608 203.5 272.517 202.636C271.426 201.773 270.085 201.341 268.494 201.341C266.919 201.341 265.585 201.758 264.494 202.591C263.419 203.424 262.593 204.606 262.017 206.136C261.441 207.667 261.153 209.47 261.153 211.545Z" fill="black"/>
<path d="M30.6591 267.909C30.5568 267.045 30.142 266.375 29.4148 265.898C28.6875 265.42 27.7955 265.182 26.7386 265.182C25.9659 265.182 25.2898 265.307 24.7102 265.557C24.1364 265.807 23.6875 266.151 23.3636 266.588C23.0455 267.026 22.8864 267.523 22.8864 268.08C22.8864 268.545 22.9972 268.946 23.2188 269.281C23.446 269.611 23.7358 269.886 24.0881 270.108C24.4403 270.324 24.8097 270.503 25.196 270.645C25.5824 270.781 25.9375 270.892 26.2614 270.977L28.0341 271.455C28.4886 271.574 28.9943 271.739 29.5511 271.949C30.1136 272.159 30.6506 272.446 31.1619 272.81C31.679 273.168 32.1051 273.628 32.4403 274.19C32.7756 274.753 32.9432 275.443 32.9432 276.261C32.9432 277.205 32.696 278.057 32.2017 278.818C31.7131 279.58 30.9972 280.185 30.054 280.634C29.1165 281.082 27.9773 281.307 26.6364 281.307C25.3864 281.307 24.304 281.105 23.3892 280.702C22.4801 280.298 21.7642 279.736 21.2415 279.014C20.7244 278.293 20.4318 277.455 20.3636 276.5H22.5455C22.6023 277.159 22.8239 277.705 23.2102 278.136C23.6023 278.562 24.0966 278.881 24.6932 279.091C25.2955 279.295 25.9432 279.398 26.6364 279.398C27.4432 279.398 28.1676 279.267 28.8097 279.006C29.4517 278.739 29.9602 278.369 30.3352 277.898C30.7102 277.42 30.8977 276.864 30.8977 276.227C30.8977 275.648 30.7358 275.176 30.4119 274.812C30.0881 274.449 29.6619 274.153 29.1335 273.926C28.6051 273.699 28.0341 273.5 27.4205 273.33L25.2727 272.716C23.9091 272.324 22.8295 271.764 22.0341 271.037C21.2386 270.31 20.8409 269.358 20.8409 268.182C20.8409 267.205 21.1051 266.352 21.6335 265.625C22.1676 264.892 22.8835 264.324 23.7812 263.92C24.6847 263.511 25.6932 263.307 26.8068 263.307C27.9318 263.307 28.9318 263.509 29.8068 263.912C30.6818 264.31 31.375 264.855 31.8864 265.548C32.4034 266.241 32.6761 267.028 32.7045 267.909H30.6591ZM36.1456 281V267.909H38.157V281H36.1456ZM37.1683 265.727C36.7763 265.727 36.4382 265.594 36.1541 265.327C35.8757 265.06 35.7365 264.739 35.7365 264.364C35.7365 263.989 35.8757 263.668 36.1541 263.401C36.4382 263.134 36.7763 263 37.1683 263C37.5604 263 37.8956 263.134 38.174 263.401C38.4581 263.668 38.6001 263.989 38.6001 264.364C38.6001 264.739 38.4581 265.06 38.174 265.327C37.8956 265.594 37.5604 265.727 37.1683 265.727ZM47.125 286.182C46.1534 286.182 45.3182 286.057 44.6193 285.807C43.9205 285.562 43.3381 285.239 42.8722 284.835C42.4119 284.438 42.0455 284.011 41.7727 283.557L43.375 282.432C43.5568 282.67 43.7869 282.943 44.0653 283.25C44.3438 283.562 44.7244 283.832 45.2074 284.06C45.696 284.293 46.3352 284.409 47.125 284.409C48.1818 284.409 49.054 284.153 49.7415 283.642C50.429 283.131 50.7727 282.33 50.7727 281.239V278.58H50.6023C50.4545 278.818 50.2443 279.114 49.9716 279.466C49.7045 279.812 49.3182 280.122 48.8125 280.395C48.3125 280.662 47.6364 280.795 46.7841 280.795C45.7273 280.795 44.7784 280.545 43.9375 280.045C43.1023 279.545 42.4403 278.818 41.9517 277.864C41.4688 276.909 41.2273 275.75 41.2273 274.386C41.2273 273.045 41.4631 271.878 41.9347 270.884C42.4063 269.884 43.0625 269.111 43.9034 268.565C44.7443 268.014 45.7159 267.739 46.8182 267.739C47.6705 267.739 48.3466 267.881 48.8466 268.165C49.3523 268.443 49.7386 268.761 50.0057 269.119C50.2784 269.472 50.4886 269.761 50.6364 269.989H50.8409V267.909H52.7841V281.375C52.7841 282.5 52.5284 283.415 52.017 284.119C51.5114 284.83 50.8295 285.349 49.9716 285.679C49.1193 286.014 48.1705 286.182 47.125 286.182ZM47.0568 278.989C47.8636 278.989 48.5455 278.804 49.1023 278.435C49.6591 278.065 50.0824 277.534 50.3722 276.841C50.6619 276.148 50.8068 275.318 50.8068 274.352C50.8068 273.409 50.6648 272.577 50.3807 271.855C50.0966 271.134 49.6761 270.568 49.1193 270.159C48.5625 269.75 47.875 269.545 47.0568 269.545C46.2045 269.545 45.4943 269.761 44.9261 270.193C44.3636 270.625 43.9403 271.205 43.6562 271.932C43.3778 272.659 43.2386 273.466 43.2386 274.352C43.2386 275.261 43.3807 276.065 43.6648 276.764C43.9545 277.457 44.3807 278.003 44.9432 278.401C45.5114 278.793 46.2159 278.989 47.0568 278.989ZM58.4773 273.125V281H56.4659V267.909H58.4091V269.955H58.5795C58.8864 269.29 59.3523 268.756 59.9773 268.352C60.6023 267.943 61.4091 267.739 62.3977 267.739C63.2841 267.739 64.0597 267.92 64.7244 268.284C65.3892 268.642 65.9063 269.188 66.2756 269.92C66.6449 270.648 66.8295 271.568 66.8295 272.682V281H64.8182V272.818C64.8182 271.79 64.5511 270.989 64.017 270.415C63.483 269.835 62.75 269.545 61.8182 269.545C61.1761 269.545 60.6023 269.685 60.0966 269.963C59.5966 270.241 59.2017 270.648 58.9119 271.182C58.6222 271.716 58.4773 272.364 58.4773 273.125ZM77.255 281V267.909H79.2663V281H77.255ZM78.2777 265.727C77.8857 265.727 77.5476 265.594 77.2635 265.327C76.9851 265.06 76.8459 264.739 76.8459 264.364C76.8459 263.989 76.9851 263.668 77.2635 263.401C77.5476 263.134 77.8857 263 78.2777 263C78.6697 263 79.005 263.134 79.2834 263.401C79.5675 263.668 79.7095 263.989 79.7095 264.364C79.7095 264.739 79.5675 265.06 79.2834 265.327C79.005 265.594 78.6697 265.727 78.2777 265.727ZM84.9616 273.125V281H82.9503V267.909H84.8935V269.955H85.0639C85.3707 269.29 85.8366 268.756 86.4616 268.352C87.0866 267.943 87.8935 267.739 88.8821 267.739C89.7685 267.739 90.544 267.92 91.2088 268.284C91.8736 268.642 92.3906 269.188 92.7599 269.92C93.1293 270.648 93.3139 271.568 93.3139 272.682V281H91.3026V272.818C91.3026 271.79 91.0355 270.989 90.5014 270.415C89.9673 269.835 89.2344 269.545 88.3026 269.545C87.6605 269.545 87.0866 269.685 86.581 269.963C86.081 270.241 85.6861 270.648 85.3963 271.182C85.1065 271.716 84.9616 272.364 84.9616 273.125ZM109.433 267.909V269.614H102.648V267.909H109.433ZM104.626 264.773H106.637V277.25C106.637 277.818 106.719 278.244 106.884 278.528C107.055 278.807 107.271 278.994 107.532 279.091C107.799 279.182 108.08 279.227 108.376 279.227C108.597 279.227 108.779 279.216 108.921 279.193C109.063 279.165 109.177 279.142 109.262 279.125L109.671 280.932C109.535 280.983 109.344 281.034 109.1 281.085C108.856 281.142 108.546 281.17 108.171 281.17C107.603 281.17 107.046 281.048 106.501 280.804C105.961 280.56 105.512 280.188 105.154 279.688C104.802 279.188 104.626 278.557 104.626 277.795V264.773ZM117.636 281.273C116.454 281.273 115.417 280.991 114.525 280.429C113.638 279.866 112.945 279.08 112.445 278.068C111.951 277.057 111.704 275.875 111.704 274.523C111.704 273.159 111.951 271.969 112.445 270.952C112.945 269.935 113.638 269.145 114.525 268.582C115.417 268.02 116.454 267.739 117.636 267.739C118.817 267.739 119.852 268.02 120.738 268.582C121.63 269.145 122.323 269.935 122.817 270.952C123.317 271.969 123.567 273.159 123.567 274.523C123.567 275.875 123.317 277.057 122.817 278.068C122.323 279.08 121.63 279.866 120.738 280.429C119.852 280.991 118.817 281.273 117.636 281.273ZM117.636 279.466C118.533 279.466 119.272 279.236 119.852 278.776C120.431 278.315 120.86 277.71 121.138 276.96C121.417 276.21 121.556 275.398 121.556 274.523C121.556 273.648 121.417 272.832 121.138 272.077C120.86 271.321 120.431 270.71 119.852 270.244C119.272 269.778 118.533 269.545 117.636 269.545C116.738 269.545 115.999 269.778 115.42 270.244C114.84 270.71 114.411 271.321 114.133 272.077C113.854 272.832 113.715 273.648 113.715 274.523C113.715 275.398 113.854 276.21 114.133 276.96C114.411 277.71 114.84 278.315 115.42 278.776C115.999 279.236 116.738 279.466 117.636 279.466ZM142.661 270.841L140.854 271.352C140.74 271.051 140.572 270.759 140.351 270.474C140.135 270.185 139.839 269.946 139.464 269.759C139.089 269.571 138.609 269.477 138.024 269.477C137.223 269.477 136.555 269.662 136.021 270.031C135.493 270.395 135.229 270.858 135.229 271.42C135.229 271.92 135.411 272.315 135.774 272.605C136.138 272.895 136.706 273.136 137.479 273.33L139.422 273.807C140.592 274.091 141.464 274.526 142.038 275.111C142.612 275.69 142.899 276.437 142.899 277.352C142.899 278.102 142.683 278.773 142.251 279.364C141.825 279.955 141.229 280.42 140.462 280.761C139.695 281.102 138.803 281.273 137.786 281.273C136.45 281.273 135.345 280.983 134.47 280.403C133.595 279.824 133.041 278.977 132.808 277.864L134.717 277.386C134.899 278.091 135.243 278.619 135.749 278.972C136.26 279.324 136.928 279.5 137.751 279.5C138.689 279.5 139.433 279.301 139.984 278.903C140.541 278.5 140.82 278.017 140.82 277.455C140.82 277 140.661 276.619 140.342 276.312C140.024 276 139.536 275.767 138.876 275.614L136.695 275.102C135.496 274.818 134.615 274.378 134.053 273.781C133.496 273.179 133.217 272.426 133.217 271.523C133.217 270.784 133.425 270.131 133.839 269.562C134.26 268.994 134.831 268.548 135.553 268.224C136.28 267.901 137.104 267.739 138.024 267.739C139.32 267.739 140.337 268.023 141.075 268.591C141.82 269.159 142.348 269.909 142.661 270.841ZM151.62 267.909V269.614H144.836V267.909H151.62ZM146.813 264.773H148.825V277.25C148.825 277.818 148.907 278.244 149.072 278.528C149.242 278.807 149.458 278.994 149.719 279.091C149.987 279.182 150.268 279.227 150.563 279.227C150.785 279.227 150.967 279.216 151.109 279.193C151.251 279.165 151.364 279.142 151.45 279.125L151.859 280.932C151.722 280.983 151.532 281.034 151.288 281.085C151.043 281.142 150.734 281.17 150.359 281.17C149.79 281.17 149.234 281.048 148.688 280.804C148.148 280.56 147.7 280.188 147.342 279.688C146.989 279.188 146.813 278.557 146.813 277.795V264.773ZM158.498 281.307C157.668 281.307 156.915 281.151 156.239 280.838C155.563 280.52 155.026 280.062 154.629 279.466C154.231 278.864 154.032 278.136 154.032 277.284C154.032 276.534 154.18 275.926 154.475 275.46C154.771 274.989 155.165 274.619 155.66 274.352C156.154 274.085 156.7 273.886 157.296 273.756C157.898 273.619 158.504 273.511 159.112 273.432C159.907 273.33 160.552 273.253 161.046 273.202C161.546 273.145 161.91 273.051 162.137 272.92C162.37 272.79 162.487 272.562 162.487 272.239V272.17C162.487 271.33 162.256 270.676 161.796 270.21C161.342 269.744 160.651 269.511 159.725 269.511C158.765 269.511 158.012 269.722 157.467 270.142C156.921 270.562 156.538 271.011 156.316 271.489L154.407 270.807C154.748 270.011 155.202 269.392 155.771 268.949C156.344 268.5 156.969 268.187 157.646 268.011C158.327 267.83 158.998 267.739 159.657 267.739C160.077 267.739 160.56 267.79 161.106 267.892C161.657 267.989 162.188 268.19 162.7 268.497C163.217 268.804 163.646 269.267 163.987 269.886C164.327 270.506 164.498 271.335 164.498 272.375V281H162.487V279.227H162.384C162.248 279.511 162.021 279.815 161.702 280.139C161.384 280.463 160.961 280.739 160.433 280.966C159.904 281.193 159.259 281.307 158.498 281.307ZM158.805 279.5C159.6 279.5 160.271 279.344 160.816 279.031C161.367 278.719 161.782 278.315 162.06 277.821C162.344 277.327 162.487 276.807 162.487 276.261V274.42C162.401 274.523 162.214 274.616 161.924 274.702C161.64 274.781 161.31 274.852 160.935 274.915C160.566 274.972 160.205 275.023 159.853 275.068C159.506 275.108 159.225 275.142 159.009 275.17C158.487 275.239 157.998 275.349 157.543 275.503C157.094 275.651 156.731 275.875 156.452 276.176C156.18 276.472 156.043 276.875 156.043 277.386C156.043 278.085 156.302 278.614 156.819 278.972C157.342 279.324 158.004 279.5 158.805 279.5ZM168.169 281V267.909H170.112V269.886H170.249C170.487 269.239 170.919 268.713 171.544 268.31C172.169 267.906 172.874 267.705 173.658 267.705C173.805 267.705 173.99 267.707 174.212 267.713C174.433 267.719 174.601 267.727 174.714 267.739V269.784C174.646 269.767 174.49 269.741 174.246 269.707C174.007 269.668 173.754 269.648 173.487 269.648C172.851 269.648 172.283 269.781 171.783 270.048C171.288 270.31 170.896 270.673 170.607 271.139C170.322 271.599 170.18 272.125 170.18 272.716V281H168.169ZM183.612 267.909V269.614H176.828V267.909H183.612ZM178.805 264.773H180.817V277.25C180.817 277.818 180.899 278.244 181.064 278.528C181.234 278.807 181.45 278.994 181.712 279.091C181.979 279.182 182.26 279.227 182.555 279.227C182.777 279.227 182.959 279.216 183.101 279.193C183.243 279.165 183.357 279.142 183.442 279.125L183.851 280.932C183.714 280.983 183.524 281.034 183.28 281.085C183.036 281.142 182.726 281.17 182.351 281.17C181.783 281.17 181.226 281.048 180.68 280.804C180.141 280.56 179.692 280.188 179.334 279.688C178.982 279.188 178.805 278.557 178.805 277.795V264.773ZM198.706 281.273C197.479 281.273 196.422 280.983 195.536 280.403C194.649 279.824 193.967 279.026 193.49 278.009C193.013 276.991 192.774 275.83 192.774 274.523C192.774 273.193 193.018 272.02 193.507 271.003C194.001 269.98 194.689 269.182 195.57 268.608C196.456 268.028 197.49 267.739 198.672 267.739C199.592 267.739 200.422 267.909 201.161 268.25C201.899 268.591 202.504 269.068 202.976 269.682C203.447 270.295 203.74 271.011 203.854 271.83H201.842C201.689 271.233 201.348 270.705 200.82 270.244C200.297 269.778 199.592 269.545 198.706 269.545C197.922 269.545 197.234 269.75 196.643 270.159C196.058 270.562 195.601 271.134 195.271 271.872C194.947 272.605 194.786 273.466 194.786 274.455C194.786 275.466 194.945 276.347 195.263 277.097C195.587 277.847 196.041 278.429 196.626 278.844C197.217 279.259 197.911 279.466 198.706 279.466C199.229 279.466 199.703 279.375 200.129 279.193C200.555 279.011 200.916 278.75 201.212 278.409C201.507 278.068 201.717 277.659 201.842 277.182H203.854C203.74 277.955 203.459 278.651 203.01 279.27C202.567 279.884 201.979 280.372 201.246 280.736C200.518 281.094 199.672 281.273 198.706 281.273ZM212.112 281.273C210.93 281.273 209.893 280.991 209.001 280.429C208.115 279.866 207.422 279.08 206.922 278.068C206.428 277.057 206.18 275.875 206.18 274.523C206.18 273.159 206.428 271.969 206.922 270.952C207.422 269.935 208.115 269.145 209.001 268.582C209.893 268.02 210.93 267.739 212.112 267.739C213.294 267.739 214.328 268.02 215.214 268.582C216.107 269.145 216.8 269.935 217.294 270.952C217.794 271.969 218.044 273.159 218.044 274.523C218.044 275.875 217.794 277.057 217.294 278.068C216.8 279.08 216.107 279.866 215.214 280.429C214.328 280.991 213.294 281.273 212.112 281.273ZM212.112 279.466C213.01 279.466 213.749 279.236 214.328 278.776C214.908 278.315 215.337 277.71 215.615 276.96C215.893 276.21 216.033 275.398 216.033 274.523C216.033 273.648 215.893 272.832 215.615 272.077C215.337 271.321 214.908 270.71 214.328 270.244C213.749 269.778 213.01 269.545 212.112 269.545C211.214 269.545 210.476 269.778 209.896 270.244C209.317 270.71 208.888 271.321 208.609 272.077C208.331 272.832 208.192 273.648 208.192 274.523C208.192 275.398 208.331 276.21 208.609 276.96C208.888 277.71 209.317 278.315 209.896 278.776C210.476 279.236 211.214 279.466 212.112 279.466ZM226.058 281.273C224.967 281.273 224.004 280.997 223.168 280.446C222.333 279.889 221.68 279.105 221.208 278.094C220.737 277.077 220.501 275.875 220.501 274.489C220.501 273.114 220.737 271.92 221.208 270.909C221.68 269.898 222.336 269.116 223.177 268.565C224.018 268.014 224.989 267.739 226.092 267.739C226.944 267.739 227.617 267.881 228.112 268.165C228.612 268.443 228.992 268.761 229.254 269.119C229.521 269.472 229.728 269.761 229.876 269.989H230.046V263.545H232.058V281H230.114V278.989H229.876C229.728 279.227 229.518 279.528 229.245 279.892C228.972 280.25 228.583 280.571 228.077 280.855C227.572 281.134 226.898 281.273 226.058 281.273ZM226.33 279.466C227.137 279.466 227.819 279.256 228.376 278.835C228.933 278.409 229.356 277.821 229.646 277.071C229.935 276.315 230.08 275.443 230.08 274.455C230.08 273.477 229.938 272.622 229.654 271.889C229.37 271.151 228.95 270.577 228.393 270.168C227.836 269.753 227.148 269.545 226.33 269.545C225.478 269.545 224.768 269.764 224.2 270.202C223.637 270.634 223.214 271.222 222.93 271.966C222.651 272.705 222.512 273.534 222.512 274.455C222.512 275.386 222.654 276.233 222.938 276.994C223.228 277.75 223.654 278.352 224.217 278.801C224.785 279.244 225.489 279.466 226.33 279.466ZM236.021 281V267.909H238.032V281H236.021ZM237.043 265.727C236.651 265.727 236.313 265.594 236.029 265.327C235.751 265.06 235.612 264.739 235.612 264.364C235.612 263.989 235.751 263.668 236.029 263.401C236.313 263.134 236.651 263 237.043 263C237.435 263 237.771 263.134 238.049 263.401C238.333 263.668 238.475 263.989 238.475 264.364C238.475 264.739 238.333 265.06 238.049 265.327C237.771 265.594 237.435 265.727 237.043 265.727ZM243.727 273.125V281H241.716V267.909H243.659V269.955H243.83C244.136 269.29 244.602 268.756 245.227 268.352C245.852 267.943 246.659 267.739 247.648 267.739C248.534 267.739 249.31 267.92 249.974 268.284C250.639 268.642 251.156 269.188 251.526 269.92C251.895 270.648 252.08 271.568 252.08 272.682V281H250.068V272.818C250.068 271.79 249.801 270.989 249.267 270.415C248.733 269.835 248 269.545 247.068 269.545C246.426 269.545 245.852 269.685 245.347 269.963C244.847 270.241 244.452 270.648 244.162 271.182C243.872 271.716 243.727 272.364 243.727 273.125ZM261.039 286.182C260.067 286.182 259.232 286.057 258.533 285.807C257.835 285.562 257.252 285.239 256.786 284.835C256.326 284.438 255.96 284.011 255.687 283.557L257.289 282.432C257.471 282.67 257.701 282.943 257.979 283.25C258.258 283.562 258.638 283.832 259.121 284.06C259.61 284.293 260.249 284.409 261.039 284.409C262.096 284.409 262.968 284.153 263.656 283.642C264.343 283.131 264.687 282.33 264.687 281.239V278.58H264.516C264.369 278.818 264.158 279.114 263.886 279.466C263.619 279.812 263.232 280.122 262.727 280.395C262.227 280.662 261.55 280.795 260.698 280.795C259.641 280.795 258.692 280.545 257.852 280.045C257.016 279.545 256.354 278.818 255.866 277.864C255.383 276.909 255.141 275.75 255.141 274.386C255.141 273.045 255.377 271.878 255.849 270.884C256.32 269.884 256.977 269.111 257.817 268.565C258.658 268.014 259.63 267.739 260.732 267.739C261.585 267.739 262.261 267.881 262.761 268.165C263.266 268.443 263.653 268.761 263.92 269.119C264.192 269.472 264.403 269.761 264.55 269.989H264.755V267.909H266.698V281.375C266.698 282.5 266.442 283.415 265.931 284.119C265.425 284.83 264.744 285.349 263.886 285.679C263.033 286.014 262.085 286.182 261.039 286.182ZM260.971 278.989C261.778 278.989 262.46 278.804 263.016 278.435C263.573 278.065 263.996 277.534 264.286 276.841C264.576 276.148 264.721 275.318 264.721 274.352C264.721 273.409 264.579 272.577 264.295 271.855C264.011 271.134 263.59 270.568 263.033 270.159C262.477 269.75 261.789 269.545 260.971 269.545C260.119 269.545 259.408 269.761 258.84 270.193C258.278 270.625 257.854 271.205 257.57 271.932C257.292 272.659 257.153 273.466 257.153 274.352C257.153 275.261 257.295 276.065 257.579 276.764C257.869 277.457 258.295 278.003 258.857 278.401C259.425 278.793 260.13 278.989 260.971 278.989Z" fill="#5C5C5C"/>
<path d="M65.625 121.5V40.5L139.875 81L65.625 121.5ZM148.125 121.5V40.5L222.375 81L148.125 121.5Z" fill="#1D1B20"/>
</svg>
